<svg width="16" height="16" viewBox="0 0 16 16" fill="none" xmlns="http://www.w3.org/2000/svg">
<g clip-path="url(#clip0_103_79)">
<path d="M12.6667 2.66705H3.33333C2.59695 2.66705 2 3.26401 2 4.00039V13.3337C2 14.0701 2.59695 14.6671 3.33333 14.6671H12.6667C13.403 14.6671 14 14.0701 14 13.3337V4.00039C14 3.26401 13.403 2.66705 12.6667 2.66705Z" stroke="#64748B" stroke-width="1.33333" stroke-linecap="round" stroke-linejoin="round"/>
<path d="M10.6667 1.33353V4.00019" stroke="#64748B" stroke-width="1.33333" stroke-linecap="round" stroke-linejoin="round"/>
<path d="M5.33325 1.33353V4.00019" stroke="#64748B" stroke-width="1.33333" stroke-linecap="round" stroke-linejoin="round"/>
<path d="M2 6.66705H14" stroke="#64748B" stroke-width="1.33333" stroke-linecap="round" stroke-linejoin="round"/>
<path d="M5.33325 9.33353H5.34325" stroke="#64748B" stroke-width="1.33333" stroke-linecap="round" stroke-linejoin="round"/>
<path d="M8 9.33353H8.01" stroke="#64748B" stroke-width="1.33333" stroke-linecap="round" stroke-linejoin="round"/>
<path d="M10.6667 9.33353H10.6767" stroke="#64748B" stroke-width="1.33333" stroke-linecap="round" stroke-linejoin="round"/>
<path d="M5.33325 12.0002H5.34325" stroke="#64748B" stroke-width="1.33333" stroke-linecap="round" stroke-linejoin="round"/>
<path d="M8 12.0002H8.01" stroke="#64748B" stroke-width="1.33333" stroke-linecap="round" stroke-linejoin="round"/>
<path d="M10.6667 12.0002H10.6767" stroke="#64748B" stroke-width="1.33333" stroke-linecap="round" stroke-linejoin="round"/>
</g>
<defs>
<clipPath id="clip0_103_79">
<rect width="16" height="16" fill="white" transform="translate(0 0.000274658)"/>
</clipPath>
</defs>
</svg>
