<svg width="16" height="16" viewBox="0 0 16 16" fill="none" xmlns="http://www.w3.org/2000/svg">
<g clip-path="url(#clip0_103_230)">
<path d="M8.14667 1.3336H7.85333C7.49971 1.3336 7.16057 1.47408 6.91053 1.72413C6.66048 1.97418 6.52 2.31331 6.52 2.66694V2.78694C6.51976 3.02075 6.45804 3.2504 6.34103 3.45283C6.22401 3.65526 6.05583 3.82336 5.85333 3.94027L5.56667 4.10694C5.36398 4.22396 5.13405 4.28557 4.9 4.28557C4.66595 4.28557 4.43603 4.22396 4.23333 4.10694L4.13333 4.0536C3.82738 3.87711 3.46389 3.82923 3.12267 3.92048C2.78145 4.01172 2.49037 4.23463 2.31333 4.54027L2.16667 4.7936C1.99018 5.09956 1.9423 5.46305 2.03354 5.80427C2.12478 6.14549 2.34769 6.43657 2.65333 6.6136L2.75333 6.68027C2.95485 6.79661 3.12241 6.96366 3.23937 7.16482C3.35632 7.36599 3.4186 7.59425 3.42 7.82694V8.16694C3.42093 8.40188 3.35977 8.6329 3.2427 8.83661C3.12563 9.04031 2.95681 9.20946 2.75333 9.32694L2.65333 9.38694C2.34769 9.56397 2.12478 9.85505 2.03354 10.1963C1.9423 10.5375 1.99018 10.901 2.16667 11.2069L2.31333 11.4603C2.49037 11.7659 2.78145 11.9888 3.12267 12.0801C3.46389 12.1713 3.82738 12.1234 4.13333 11.9469L4.23333 11.8936C4.43603 11.7766 4.66595 11.715 4.9 11.715C5.13405 11.715 5.36398 11.7766 5.56667 11.8936L5.85333 12.0603C6.05583 12.1772 6.22401 12.3453 6.34103 12.5477C6.45804 12.7501 6.51976 12.9798 6.52 13.2136V13.3336C6.52 13.6872 6.66048 14.0264 6.91053 14.2764C7.16057 14.5265 7.49971 14.6669 7.85333 14.6669H8.14667C8.50029 14.6669 8.83943 14.5265 9.08948 14.2764C9.33952 14.0264 9.48 13.6872 9.48 13.3336V13.2136C9.48024 12.9798 9.54196 12.7501 9.65898 12.5477C9.77599 12.3453 9.94418 12.1772 10.1467 12.0603L10.4333 11.8936C10.636 11.7766 10.866 11.715 11.1 11.715C11.334 11.715 11.564 11.7766 11.7667 11.8936L11.8667 11.9469C12.1726 12.1234 12.5361 12.1713 12.8773 12.0801C13.2186 11.9888 13.5096 11.7659 13.6867 11.4603L13.8333 11.2003C14.0098 10.8943 14.0577 10.5308 13.9665 10.1896C13.8752 9.84838 13.6523 9.5573 13.3467 9.38027L13.2467 9.32694C13.0432 9.20946 12.8744 9.04031 12.7573 8.83661C12.6402 8.6329 12.5791 8.40188 12.58 8.16694V7.8336C12.5791 7.59866 12.6402 7.36763 12.7573 7.16393C12.8744 6.96023 13.0432 6.79108 13.2467 6.6736L13.3467 6.6136C13.6523 6.43657 13.8752 6.14549 13.9665 5.80427C14.0577 5.46305 14.0098 5.09956 13.8333 4.7936L13.6867 4.54027C13.5096 4.23463 13.2186 4.01172 12.8773 3.92048C12.5361 3.82923 12.1726 3.87711 11.8667 4.0536L11.7667 4.10694C11.564 4.22396 11.334 4.28557 11.1 4.28557C10.866 4.28557 10.636 4.22396 10.4333 4.10694L10.1467 3.94027C9.94418 3.82336 9.77599 3.65526 9.65898 3.45283C9.54196 3.2504 9.48024 3.02075 9.48 2.78694V2.66694C9.48 2.31331 9.33952 1.97418 9.08948 1.72413C8.83943 1.47408 8.50029 1.3336 8.14667 1.3336Z" stroke="#334155" stroke-width="2" stroke-linecap="round" stroke-linejoin="round"/>
<path d="M8 10.0003C9.10457 10.0003 10 9.10484 10 8.00027C10 6.89571 9.10457 6.00027 8 6.00027C6.89543 6.00027 6 6.89571 6 8.00027C6 9.10484 6.89543 10.0003 8 10.0003Z" stroke="#334155" stroke-width="2" stroke-linecap="round" stroke-linejoin="round"/>
</g>
<defs>
<clipPath id="clip0_103_230">
<rect width="16" height="16" fill="white" transform="translate(0 0.000274658)"/>
</clipPath>
</defs>
</svg>
