<svg width="16" height="16" viewBox="0 0 16 16" fill="none" xmlns="http://www.w3.org/2000/svg">
<path d="M10.6666 14.0003V12.6669C10.6666 11.9597 10.3856 11.2814 9.88554 10.7813C9.38544 10.2812 8.70716 10.0003 7.99992 10.0003H3.99992C3.29267 10.0003 2.6144 10.2812 2.1143 10.7813C1.6142 11.2814 1.33325 11.9597 1.33325 12.6669V14.0003" stroke="#334155" stroke-width="2" stroke-linecap="round" stroke-linejoin="round"/>
<path d="M5.99992 7.33361C7.47268 7.33361 8.66659 6.1397 8.66659 4.66694C8.66659 3.19418 7.47268 2.00027 5.99992 2.00027C4.52716 2.00027 3.33325 3.19418 3.33325 4.66694C3.33325 6.1397 4.52716 7.33361 5.99992 7.33361Z" stroke="#334155" stroke-width="2" stroke-linecap="round" stroke-linejoin="round"/>
<path d="M14.6667 14.0003V12.6669C14.6663 12.0761 14.4697 11.5021 14.1077 11.0352C13.7457 10.5682 13.2388 10.2347 12.6667 10.0869" stroke="black" stroke-width="2" stroke-linecap="round" stroke-linejoin="round"/>
<path d="M10.6667 2.08694C11.2404 2.23381 11.7488 2.56741 12.1118 3.03515C12.4749 3.50289 12.672 4.07816 12.672 4.67028C12.672 5.26239 12.4749 5.83766 12.1118 6.3054C11.7488 6.77314 11.2404 7.10674 10.6667 7.25361" stroke="black" stroke-width="2" stroke-linecap="round" stroke-linejoin="round"/>
</svg>
